<svg width="24" height="24" viewBox="0 0 24 24" fill="none" xmlns="http://www.w3.org/2000/svg">
<g clip-path="url(#clip0_102_18525)">
<path d="M12 13C12.2652 13 12.5195 13.1054 12.7071 13.2929C12.8946 13.4804 13 13.7348 13 14V15.268L14.098 14.634C14.2117 14.5673 14.3376 14.5238 14.4682 14.5059C14.5989 14.488 14.7318 14.4962 14.8593 14.5299C14.9868 14.5636 15.1064 14.6222 15.2111 14.7023C15.3159 14.7824 15.4038 14.8825 15.4697 14.9967C15.5357 15.1109 15.5784 15.237 15.5954 15.3678C15.6124 15.4986 15.6033 15.6314 15.5688 15.7587C15.5342 15.886 15.4748 16.0051 15.394 16.1094C15.3132 16.2136 15.2126 16.3008 15.098 16.366L14 17L15.098 17.634C15.2126 17.6992 15.3132 17.7864 15.394 17.8906C15.4748 17.9949 15.5342 18.114 15.5688 18.2413C15.6033 18.3686 15.6124 18.5014 15.5954 18.6322C15.5784 18.763 15.5357 18.8891 15.4697 19.0033C15.4038 19.1175 15.3159 19.2176 15.2111 19.2977C15.1064 19.3778 14.9868 19.4364 14.8593 19.4701C14.7318 19.5038 14.5989 19.512 14.4682 19.4941C14.3376 19.4762 14.2117 19.4327 14.098 19.366L13 18.732V20C13 20.2652 12.8946 20.5196 12.7071 20.7071C12.5195 20.8946 12.2652 21 12 21C11.7347 21 11.4804 20.8946 11.2929 20.7071C11.1053 20.5196 11 20.2652 11 20V18.732L9.90196 19.366C9.78819 19.4327 9.66235 19.4762 9.53168 19.4941C9.40102 19.512 9.26811 19.5038 9.14061 19.4701C9.01311 19.4364 8.89354 19.3778 8.78878 19.2977C8.68402 19.2176 8.59614 19.1175 8.53019 19.0033C8.46425 18.8891 8.42155 18.763 8.40456 18.6322C8.38756 18.5014 8.3966 18.3686 8.43115 18.2413C8.4657 18.114 8.52509 17.9949 8.60589 17.8906C8.68669 17.7864 8.78731 17.6992 8.90196 17.634L9.99996 17L8.90196 16.366C8.78731 16.3008 8.68669 16.2136 8.60589 16.1094C8.52509 16.0051 8.4657 15.886 8.43115 15.7587C8.3966 15.6314 8.38756 15.4986 8.40456 15.3678C8.42155 15.237 8.46425 15.1109 8.53019 14.9967C8.59614 14.8825 8.68402 14.7824 8.78878 14.7023C8.89354 14.6222 9.01311 14.5636 9.14061 14.5299C9.26811 14.4962 9.40102 14.488 9.53168 14.5059C9.66235 14.5238 9.78819 14.5673 9.90196 14.634L11 15.268V14C11 13.7348 11.1053 13.4804 11.2929 13.2929C11.4804 13.1054 11.7347 13 12 13ZM11.5 2C12.8224 1.99987 14.1134 2.40298 15.2008 3.15554C16.2881 3.9081 17.1202 4.97433 17.586 6.212C18.8602 6.56158 19.9835 7.32189 20.7815 8.37497C21.5796 9.42805 22.0079 10.7151 21.9999 12.0364C21.9919 13.3577 21.5481 14.6394 20.7374 15.6828C19.9267 16.7261 18.7943 17.4728 17.516 17.807C17.4488 17.5239 17.3411 17.2521 17.196 17C17.4596 16.544 17.5985 16.0266 17.5986 15.4999C17.5988 14.9732 17.4602 14.4557 17.1968 13.9995C16.9335 13.5434 16.5546 13.1646 16.0984 12.9014C15.6422 12.6381 15.1247 12.4997 14.598 12.5C14.3348 12.0437 13.9562 11.6648 13.5001 11.4013C13.0441 11.1378 12.5267 10.9991 12 10.9991C11.4733 10.9991 10.9558 11.1378 10.4998 11.4013C10.0437 11.6648 9.66507 12.0437 9.40196 12.5C8.87515 12.4995 8.35752 12.6378 7.90115 12.901C7.44479 13.1642 7.0658 13.5429 6.80232 13.9991C6.53885 14.4553 6.40019 14.9728 6.4003 15.4996C6.40041 16.0264 6.53929 16.5439 6.80296 17C6.63015 17.3006 6.5104 17.6287 6.44896 17.97C5.35366 17.8491 4.32896 17.3698 3.53414 16.6066C2.73932 15.8433 2.2189 14.8389 2.05378 13.7494C1.88865 12.6599 2.08807 11.5464 2.62104 10.5819C3.154 9.61738 3.99066 8.85598 5.00096 8.416C5.02305 6.70686 5.71747 5.07521 6.93385 3.87436C8.15024 2.67351 9.79068 2.00012 11.5 2Z" fill="#BCF3FF"/>
</g>
<defs>
<clipPath id="clip0_102_18525">
<rect width="24" height="24" fill="white"/>
</clipPath>
</defs>
</svg>
