<svg width="24" height="24" viewBox="0 0 24 24" fill="none" xmlns="http://www.w3.org/2000/svg">
<g clip-path="url(#clip0_102_18527)">
<path d="M10.924 15.792C10.958 15.6651 11.0167 15.5462 11.0966 15.442C11.1766 15.3379 11.2763 15.2504 11.3901 15.1848C11.5038 15.1191 11.6294 15.0765 11.7596 15.0594C11.8898 15.0423 12.0221 15.051 12.149 15.085C12.2758 15.119 12.3948 15.1777 12.4989 15.2576C12.6031 15.3376 12.6905 15.4373 12.7562 15.5511C12.8218 15.6648 12.8644 15.7904 12.8816 15.9206C12.8987 16.0508 12.89 16.1831 12.856 16.31L12.597 17.276C12.5283 17.5322 12.3606 17.7506 12.1309 17.8832C11.9012 18.0158 11.6282 18.0517 11.372 17.983C11.1158 17.9143 10.8974 17.7467 10.7648 17.5169C10.6322 17.2872 10.5963 17.0142 10.665 16.758L10.924 15.792ZM11.5 2C12.8224 1.99987 14.1134 2.40298 15.2008 3.15554C16.2882 3.9081 17.1202 4.97433 17.586 6.212C18.9853 6.5979 20.1973 7.47782 20.9976 8.6888C21.7979 9.89978 22.1323 11.3598 21.9387 12.7983C21.7452 14.2369 21.0369 15.5566 19.9449 16.513C18.853 17.4694 17.4515 17.9977 16 18H14.466C14.489 17.932 14.51 17.864 14.529 17.793L14.788 16.828C14.9939 16.0594 14.8861 15.2405 14.4882 14.5514C14.2912 14.2102 14.029 13.9111 13.7164 13.6713C13.4038 13.4314 13.0471 13.2555 12.6665 13.1535C11.8979 12.9476 11.079 13.0554 10.3899 13.4532C9.70075 13.8511 9.19792 14.5064 8.99198 15.275L8.73298 16.241C8.59619 16.7493 8.59619 17.2847 8.73298 17.793C8.66678 17.859 8.60371 17.9281 8.54398 18H6.99998C5.85069 18.0008 4.73623 17.6056 3.84417 16.8809C2.95212 16.1563 2.33693 15.1465 2.10215 14.0214C1.86737 12.8964 2.02734 11.7248 2.55513 10.7038C3.08292 9.6829 3.94631 8.87496 4.99998 8.416C5.02207 6.70669 5.71663 5.07489 6.93323 3.87401C8.14983 2.67313 9.79053 1.99986 11.5 2ZM11.82 20.174C11.8581 20.0459 11.8701 19.9116 11.8554 19.7788C11.8407 19.646 11.7995 19.5175 11.7343 19.4009C11.6691 19.2843 11.5812 19.1819 11.4758 19.0999C11.3704 19.0178 11.2496 18.9577 11.1206 18.9231C10.9915 18.8885 10.8569 18.8801 10.7245 18.8983C10.5922 18.9166 10.4649 18.9613 10.3501 19.0296C10.2353 19.0979 10.1353 19.1885 10.0561 19.2961C9.97693 19.4037 9.9201 19.5261 9.88898 19.656L9.62998 20.622C9.56129 20.8782 9.59719 21.1512 9.72977 21.3809C9.86236 21.6107 10.0808 21.7783 10.337 21.847C10.5932 21.9157 10.8662 21.8798 11.0959 21.7472C11.3256 21.6146 11.4933 21.3962 11.562 21.14L11.82 20.174Z" fill="#3DAFD8"/>
</g>
<defs>
<clipPath id="clip0_102_18527">
<rect width="24" height="24" fill="white"/>
</clipPath>
</defs>
</svg>
