<svg width="24" height="24" viewBox="0 0 24 24" fill="none" xmlns="http://www.w3.org/2000/svg">
<g clip-path="url(#clip0_102_18524)">
<path d="M13 3C13 2.73478 12.8947 2.48043 12.7072 2.29289C12.5196 2.10536 12.2653 2 12 2C11.7348 2 11.4805 2.10536 11.2929 2.29289C11.1054 2.48043 11 2.73478 11 3V3.962L10.346 3.616C10.23 3.55461 10.1029 3.51668 9.97217 3.50439C9.84142 3.49209 9.70954 3.50567 9.58404 3.54435C9.45854 3.58302 9.34189 3.64604 9.24074 3.72979C9.1396 3.81355 9.05594 3.91641 8.99455 4.0325C8.93316 4.14859 8.89523 4.27563 8.88294 4.40638C8.87064 4.53712 8.88422 4.66901 8.92289 4.79451C8.96157 4.92001 9.02459 5.03666 9.10834 5.1378C9.1921 5.23895 9.29496 5.32261 9.41105 5.384L11 6.224V8.126C10.296 8.30799 9.655 8.67863 9.14605 9.198L7.49805 8.246L7.56505 6.45C7.57486 6.18492 7.47897 5.92679 7.29847 5.73241C7.11796 5.53803 6.86763 5.42331 6.60255 5.4135C6.33747 5.40369 6.07934 5.49958 5.88496 5.68008C5.69058 5.86059 5.57586 6.11092 5.56605 6.376L5.53905 7.115L4.70605 6.635C4.59221 6.56457 4.46539 6.51772 4.33311 6.49721C4.20083 6.47671 4.06578 6.48297 3.93597 6.51563C3.80615 6.54829 3.68421 6.60667 3.57738 6.68733C3.47055 6.76799 3.381 6.86928 3.31404 6.98518C3.24708 7.10109 3.20407 7.22927 3.18756 7.36211C3.17106 7.49495 3.18139 7.62975 3.21795 7.75852C3.25451 7.88729 3.31655 8.00741 3.40039 8.11176C3.48423 8.21611 3.58817 8.30257 3.70605 8.366L4.53905 8.847L3.91205 9.241C3.69336 9.38473 3.53972 9.60846 3.48411 9.86417C3.4285 10.1199 3.47535 10.3872 3.6146 10.6088C3.75385 10.8304 3.9744 10.9885 4.22894 11.0493C4.48347 11.1101 4.75169 11.0687 4.97605 10.934L6.49805 9.978L8.14505 10.929C7.95047 11.6297 7.95047 12.3703 8.14505 13.071L6.49805 14.021L4.97605 13.066C4.75169 12.9313 4.48347 12.8899 4.22894 12.9507C3.9744 13.0115 3.75385 13.1696 3.6146 13.3912C3.47535 13.6128 3.4285 13.8801 3.48411 14.1358C3.53972 14.3915 3.69336 14.6153 3.91205 14.759L4.53905 15.153L3.70605 15.633C3.59226 15.6987 3.49252 15.7861 3.41251 15.8903C3.33251 15.9945 3.27382 16.1135 3.23979 16.2403C3.20575 16.3672 3.19705 16.4996 3.21417 16.6298C3.23128 16.7601 3.27389 16.8857 3.33955 16.9995C3.40521 17.1133 3.49264 17.213 3.59685 17.293C3.70106 17.373 3.82 17.4317 3.94689 17.4658C4.07379 17.4998 4.20614 17.5085 4.33639 17.4914C4.46665 17.4743 4.59226 17.4317 4.70605 17.366L5.53805 16.885L5.56605 17.625C5.57097 17.7563 5.6017 17.8853 5.65648 18.0046C5.71126 18.124 5.78902 18.2314 5.88531 18.3208C5.98161 18.4101 6.09455 18.4796 6.2177 18.5253C6.34085 18.5709 6.47179 18.5919 6.60305 18.587C6.73431 18.5821 6.86331 18.5513 6.98269 18.4966C7.10207 18.4418 7.20949 18.364 7.29882 18.2677C7.38815 18.1714 7.45764 18.0585 7.50332 17.9353C7.549 17.8122 7.56997 17.6813 7.56505 17.55L7.49805 15.754L9.14605 14.802C9.65484 15.3216 10.2959 15.6922 11 15.874V17.776L9.41105 18.616C9.1766 18.74 9.001 18.952 8.92289 19.2055C8.84479 19.4589 8.87056 19.733 8.99455 19.9675C9.11854 20.202 9.33058 20.3775 9.58404 20.4557C9.83749 20.5338 10.1116 20.508 10.346 20.384L11 20.038V21C11 21.2652 11.1054 21.5196 11.2929 21.7071C11.4805 21.8946 11.7348 22 12 22C12.2653 22 12.5196 21.8946 12.7072 21.7071C12.8947 21.5196 13 21.2652 13 21V20.038L13.654 20.384C13.8885 20.508 14.1626 20.5338 14.4161 20.4557C14.6695 20.3775 14.8816 20.202 15.0055 19.9675C15.1295 19.733 15.1553 19.4589 15.0772 19.2055C14.9991 18.952 14.8235 18.74 14.589 18.616L13 17.776V15.874C13.704 15.6923 14.345 15.322 14.854 14.803L16.502 15.754L16.435 17.55C16.4301 17.6813 16.4511 17.8122 16.4968 17.9353C16.5425 18.0585 16.6119 18.1714 16.7013 18.2677C16.7906 18.364 16.898 18.4418 17.0174 18.4966C17.1368 18.5513 17.2658 18.5821 17.397 18.587C17.5283 18.5919 17.6592 18.5709 17.7824 18.5253C17.9055 18.4796 18.0185 18.4101 18.1148 18.3208C18.2111 18.2314 18.2888 18.124 18.3436 18.0046C18.3984 17.8853 18.4291 17.7563 18.434 17.625L18.461 16.885L19.2941 17.366C19.4078 17.4327 19.5337 17.4762 19.6643 17.4941C19.795 17.512 19.9279 17.5038 20.0554 17.4701C20.1829 17.4364 20.3025 17.3778 20.4072 17.2977C20.512 17.2176 20.5999 17.1175 20.6658 17.0033C20.7318 16.8891 20.7745 16.763 20.7915 16.6322C20.8085 16.5014 20.7994 16.3686 20.7649 16.2413C20.7303 16.114 20.6709 15.9949 20.5901 15.8906C20.5093 15.7864 20.4087 15.6992 20.2941 15.634L19.462 15.154L20.088 14.76C20.3127 14.6189 20.4721 14.3944 20.5311 14.1357C20.5902 13.8771 20.5441 13.6056 20.403 13.381C20.262 13.1564 20.0374 12.997 19.7788 12.9379C19.5202 12.8788 19.2487 12.9249 19.024 13.066L17.502 14.022L15.855 13.072C16.0498 12.3709 16.0498 11.6301 15.855 10.929L17.502 9.978L19.024 10.934C19.2487 11.0751 19.5202 11.1212 19.7788 11.0621C20.0374 11.003 20.262 10.8436 20.403 10.619C20.5441 10.3944 20.5902 10.1229 20.5311 9.86426C20.4721 9.60565 20.3127 9.38109 20.088 9.24L19.4611 8.847L20.2941 8.366C20.4087 8.30082 20.5093 8.2136 20.5901 8.10937C20.6709 8.00515 20.7303 7.88597 20.7649 7.75869C20.7994 7.63142 20.8085 7.49857 20.7915 7.36779C20.7745 7.23701 20.7318 7.11088 20.6658 6.99667C20.5999 6.88246 20.512 6.78242 20.4072 6.70231C20.3025 6.62221 20.1829 6.56361 20.0554 6.5299C19.9279 6.49619 19.795 6.48804 19.6643 6.5059C19.5337 6.52377 19.4078 6.5673 19.2941 6.634L18.461 7.114L18.434 6.375C18.4291 6.24374 18.3984 6.11474 18.3436 5.99536C18.2888 5.87598 18.2111 5.76856 18.1148 5.67923C18.0185 5.5899 17.9055 5.52041 17.7824 5.47473C17.6592 5.42905 17.5283 5.40808 17.397 5.413C17.2658 5.41792 17.1368 5.44865 17.0174 5.50343C16.898 5.55821 16.7906 5.63597 16.7013 5.73226C16.6119 5.82856 16.5425 5.9415 16.4968 6.06465C16.4511 6.1878 16.4301 6.31874 16.435 6.45L16.502 8.246L14.854 9.197C14.345 8.678 13.704 8.3077 13 8.126V6.224L14.589 5.384C14.8235 5.26001 14.9991 5.04797 15.0772 4.79451C15.1553 4.54105 15.1295 4.26695 15.0055 4.0325C14.8816 3.79805 14.6695 3.62245 14.4161 3.54435C14.1626 3.46624 13.8885 3.49201 13.654 3.616L13 3.962V3Z" fill="white"/>
</g>
<defs>
<clipPath id="clip0_102_18524">
<rect width="24" height="24" fill="white"/>
</clipPath>
</defs>
</svg>
